<svg xmlns="http://www.w3.org/2000/svg" width="418" height="520" viewBox="0 0 1672 2080">
<path fill="#241106" stroke="none" fill-rule="evenodd" d="M999.2 287.2 c-.66 .66 -1.2 1.98 -1.2 2.92 0 1.82 4.68 21.77 6.16 26.24
1.07 3.23 2.81 7.73 3.88 10 1.07 2.27 3.07 5.35 4.45 6.84 1.38 1.49 2.51
3.25 2.51 3.91 0 .67 .3 .91 .66 .55 .36 -.36 -.5 -2.8 -1.91 -5.42 -1.42
-2.62 -4.14 -9.48 -6.05 -15.26 -1.91 -5.78 -4.27 -14.22 -5.24 -18.77 -.97
-4.55 -1.53 -8.5 -1.25 -8.78 .28 -.28 6.54 3.35 13.9 8.08 7.36 4.73 15.94
10.6 19.07 13.05 3.13 2.45 5.92 4.07 6.21 3.61 .29 -.47 -1.37 -2.65 -3.68
-4.86 -2.31 -2.21 -6.23 -5.39 -8.71 -7.08 -4.7 -3.2 -26.24 -16.24 -26.83
-16.24 -.43 0 -1.31 .54 -1.97 1.2z"/>
</svg>
