<svg xmlns="http://www.w3.org/2000/svg"
 width="515" height="613" viewBox="0 0 2060 2452">
<path fill="#ecbd5d" stroke="#ecbd5d" stroke-width="0.80" stroke-linejoin="round" fill-rule="evenodd" d="M1088.78 384.68 c-2.68 2.68 -2.68 2.68 -.56 3.75 1.17 .59 2.31 1.63 2.54
2.32 .27 .83 -.54 1.25 -2.71 1.25 -1.79 0 -9.98 -1.35 -18.18 -3.03 -8.2
-1.68 -15.71 -2.95 -16.51 -2.78 -.8 .17 -1.47 .76 -1.49 1.31 -.02 .55 3.05
1.94 6.8 3.09 6.13 1.88 6.8 2.44 6.55 4.58 -.15 1.31 -.89 2.62 -1.64 3.04
-.75 .42 -1.7 2 -2.11 3.52 -.41 1.52 -.75 4.22 -.74 6 .01 1.78 .55 3.89
1.21 4.69 .66 .8 1.85 1.2 2.64 .9 .79 -.3 2.1 -0 2.92 .67 .9 .75 1.25 2.11
.91 3.5 -.31 1.25 -.08 2.58 .51 2.94 .59 .37 1.08 1.09 1.08 1.61 0 .52 -.46
.94 -1.02 .94 -.56 0 -1.51 -1.08 -2.11 -2.39 -.6 -1.31 -2.17 -2.97 -3.49
-3.68 -1.32 -.71 -4.37 -4.16 -6.93 -7.91 -2.56 -3.75 -5.05 -7.02 -5.46
-7.02 -.41 0 -1.5 -.26 -2.32 -.58 -1.08 -.41 -1.6 .2 -1.83 2.15 -.2 1.69
-1.71 3.85 -3.96 5.66 -2.69 2.17 -5.3 3.16 -10 3.81 -3.5 .48 -8.16 1.33
-10.36 1.89 -2.2 .56 -5.22 1.04 -6.73 1.06 -1.51 .01 -2.77 -.4 -2.77 -.93 0
-.53 1.13 -2.31 2.76 -4.17 l3.18 -3.59 -2.72 -2.51 c-1.49 -1.38 -3.49 -2.78
-4.44 -3.11 -.95 -.33 -4.1 .48 -7 1.81 -2.9 1.33 -7.11 4.35 -9.36 6.71 -3.9
4.11 -4.05 4.38 -3.64 9.47 .36 4.41 .82 5.64 2.8 6.54 1.79 .81 2.26 1.67
1.9 3.43 -.26 1.29 -.71 3.47 -1 4.85 -.34 1.65 -1.19 2.5 -2.5 2.5 -1.09 0
-1.98 .45 -1.98 1 0 1.42 14.32 1.28 15.76 -.16 .91 -.91 1.49 -.88 2.7 .12
.85 .7 1.54 1.67 1.54 2.16 0 .48 -3.31 .88 -7.56 .88 l-7.89 0 7.95 8 c4.37
4.4 8.38 8 8.9 8 .52 0 1.73 .71 2.68 1.57 1.58 1.43 2.51 1.33 8.61 -.55
4.73 -1.46 9.19 -2.02 15.64 -2.01 5.03 .01 11.64 .67 14.65 1.47 5.44 1.45
5.5 1.44 8.21 -1.16 1.51 -1.44 2.5 -3 2.21 -3.47 -.29 -.47 -2.05 -.85 -3.92
-.85 -1.87 0 -5.66 -.49 -8.44 -1.08 -2.78 -.6 -5.05 -1.46 -5.05 -1.92 0
-.46 .34 -.98 .75 -1.17 .41 -.18 1.77 -4.38 3.03 -9.33 1.25 -4.95 2.26 -9.8
2.25 -10.77 -.02 -1.43 .51 -1.64 2.72 -1.11 1.51 .36 4.95 1.52 7.64 2.56
2.69 1.04 8.86 4.09 13.71 6.76 6.87 3.79 9.05 4.59 9.87 3.6 .79 -.95 -.41
-2.16 -4.92 -4.95 -3.28 -2.03 -6.25 -4.13 -6.58 -4.68 -.34 -.55 .74 -3.12
2.39 -5.71 1.65 -2.59 4.39 -8.21 6.08 -12.49 1.69 -4.28 3.07 -8.47 3.07
-9.32 0 -1.13 .59 -1.13 2.24 -.63 1.24 .37 4.34 1.71 6.88 3.25 l4.63 2.8
4.12 -4.19 4.12 -4.19 -8.76 -8.72 -8.76 -8.72 -2.68 2.68z M914.25 388.91
c-9.15 3.51 -11.96 4.98 -11.11 5.83 .85 .85 2.78 .52 7.62 -1.3 3.56 -1.34
6.65 -2.44 6.86 -2.44 .21 0 .38 .87 .38 1.94 0 1.07 -.45 2.22 -1 2.56 -.55
.34 -.99 1.15 -.97 1.81 .02 .66 1.16 2.02 2.55 3.02 2.13 1.55 2.77 1.63
4.16 .5 1.58 -1.28 1.62 -1.27 1.03 .3 -.34 .9 -3.41 5.62 -6.83 10.5 -3.42
4.88 -8.29 11.06 -10.83 13.74 -2.53 2.68 -6.97 6.41 -9.87 8.29 -2.89 1.88
-9.54 5.36 -14.78 7.74 -7.73 3.51 -9.25 4.54 -8.09 5.5 1.11 .92 2.59 .74
6.78 -.85 2.95 -1.12 5.41 -2.04 5.48 -2.04 .07 -0 .4 1.38 .74 3.07 .58 2.9
.84 3.05 4.77 2.75 2.68 -.21 4.31 .13 4.59 .93 .31 .89 -1.01 1.25 -4.6 1.25
-3 0 -11.22 1.8 -20.33 4.45 -8.41 2.45 -20.01 6.02 -25.78 7.94 -5.76 1.92
-10.63 3.34 -10.81 3.16 -.18 -.18 -.46 -1.54 -.61 -3.03 -.16 -1.49 -.88
-3.07 -1.61 -3.52 -.99 -.61 -.29 -1.98 2.84 -5.55 2.29 -2.6 4.16 -5.24 4.16
-5.87 0 -.63 -2.39 -3.51 -5.32 -6.4 l-5.32 -5.25 -2.56 2.01 c-1.41 1.11
-4.22 5.5 -6.24 9.76 -2.02 4.26 -6.34 11.67 -9.4 16.26 -3.05 4.58 -7.58
10.68 -10.27 13.76 -2.69 3.08 -4.9 5.92 -4.9 6.32 0 .4 .7 1.3 1.55 2.01
1.32 1.1 2.35 .5 6.92 -4.02 4.67 -4.61 5.76 -5.23 8.3 -4.72 1.64 .33 3.43
.09 4.06 -.54 .62 -.62 1.43 -.82 1.81 -.45 .37 .37 -.01 1.47 -.85 2.43 -.84
.97 -1.33 2.32 -1.08 3.01 .25 .69 -.03 1.25 -.63 1.25 -.6 0 -1.08 .45 -1.08
1 0 .55 1.03 1 2.3 1 1.27 0 2.79 .49 3.39 1.09 .78 .78 1.26 .6 1.75 -.18
.37 -.6 1.8 -.9 3.16 -.9 1.36 0 4.15 -.84 6.19 -1.86 2.04 -1.03 5.37 -2.4
7.4 -3.06 5.62 -1.82 10.9 .03 17.07 5.98 2.82 2.72 5.49 4.95 5.94 4.95 .45
0 .81 .45 .81 1 0 .55 -.66 1.01 -1.33 1.01 -.68 0 .34 1.45 2.13 3.24 l3.25
3.25 3.23 -1.92 c1.77 -1.05 5.7 -3.15 8.73 -4.67 3.02 -1.51 8.31 -3.97
11.75 -5.47 3.44 -1.5 6.25 -3.33 6.25 -4.07 0 -.74 -1.19 -1.64 -2.65 -2.01
-1.54 -.39 -3.98 -.18 -5.82 .48 -1.74 .63 -3.46 1.15 -3.82 1.15 -.36 0 -.41
-.63 -.11 -1.4 .29 -.77 -.44 -2.08 -1.64 -2.92 -1.2 -.84 -1.92 -1.94 -1.6
-2.46 .32 -.51 -.56 -1.45 -1.96 -2.09 -1.81 -.82 -2.45 -1.8 -2.22 -3.38 .25
-1.75 2.37 -3.14 9.89 -6.49 5.26 -2.35 12.24 -4.76 15.5 -5.37 3.26 -.61
8.94 -.9 12.62 -.64 4.24 .3 8.44 1.34 11.5 2.86 3.58 1.78 4.76 2.9 4.6 4.39
-.12 1.1 -0 2.61 .26 3.36 .4 1.13 .73 1.16 1.92 .16 .79 -.66 1.91 -.91 2.48
-.56 .57 .35 3.32 -1.5 6.11 -4.12 4.14 -3.87 5.39 -4.55 6.76 -3.68 1.32 .84
3.31 .24 9.18 -2.75 5.3 -2.7 9.7 -6.04 14.97 -11.37 l7.47 -7.55 -3.6 0
c-1.98 0 -5.04 -.29 -6.81 -.64 -1.77 -.35 -3.46 -1.28 -3.76 -2.07 -.32 -.83
1.09 -3.12 3.34 -5.44 2.14 -2.21 5.1 -4.65 6.58 -5.43 1.49 -.78 4.31 -1.42
6.28 -1.42 6.73 0 5.68 -2.33 -6.59 -14.59 l-11.4 -11.39 -6.25 -.65 c-3.63
-.38 -6.25 -1.13 -6.25 -1.79 0 -.63 -2.59 -3.67 -5.75 -6.75 -3.16 -3.09
-6.76 -5.92 -8 -6.29 -1.24 -.37 -3.15 -.39 -4.25 -.04 -1.4 .44 -2 1.51 -2
3.57 0 1.61 -.42 2.93 -.94 2.93 -.52 0 -1.19 -1.4 -1.36 -3.15 -.17 -1.75
-.68 -3.3 -1.23 -3.42 -.55 -.12 -6.48 1.9 -13.22 4.48z M1072.23 468.27
l-12.27 12.25 6.28 6.23 6.31 6.25 6.04 0 c5.4 0 6.26 -.21 8.83 -2.89 l2.96
-3.11 -2.69 0 c-1.48 0 -2.69 -.45 -2.69 -1 0 -.55 .67 -1 1.5 -1 .83 0 1.5
-.63 1.5 -1.39 0 -.77 1.08 -1.66 2.41 -2 1.81 -.45 2.28 -1.1 1.88 -2.61
-.43 -1.66 .39 -2.39 4.66 -4.17 l5.19 -2.16 -8.3 -8.34 c-4.56 -4.59 -8.54
-8.34 -8.83 -8.34 -.3 0 -6.05 5.52 -12.78 12.27z M1178.7 530.8 c-6.47 6.49
-11.45 12.12 -11.06 12.5 .39 .39 -.27 1.74 -1.46 3 l-2.16 2.3 15.02 14.9
15.02 14.9 6.19 -6.19 6.19 -6.19 -4.91 -4.99 c-4.68 -4.75 -4.85 -5.11 -3.54
-7.55 .75 -1.41 2.86 -3.48 4.68 -4.61 2.7 -1.67 3.2 -2.49 2.7 -4.47 -.6
-2.4 -.56 -2.42 7.23 -2.42 l7.84 0 -11.47 -11.5 c-10.3 -10.33 -11.83 -11.5
-15 -11.5 -3.18 0 -4.71 1.18 -15.3 11.8z M857 771.5 c-1.38 .79 -3.29 1.45
-4.25 1.46 -.96 .02 -1.75 .49 -1.75 1.04 0 .55 .45 1 1 1 .55 0 1 .45 1 1 0
.55 -.87 1 -1.93 1 -1.06 0 -3.17 .47 -4.68 1.05 l-2.75 1.05 8.89 8.93 8.89
8.93 2.33 -2.19 2.33 -2.19 -2.11 -.78 c-1.58 -.58 -2.03 -1.48 -1.79 -3.54
.23 -2 .95 -2.85 2.62 -3.08 1.27 -.18 2.96 .21 3.75 .87 .79 .66 1.44 2.04
1.44 3.08 0 1.03 -.51 1.88 -1.12 1.88 -.83 0 -.79 .41 .17 1.56 1.13 1.36
2.28 .58 9.07 -6.18 4.28 -4.25 7.57 -8.08 7.31 -8.5 -.26 -.42 -2.6 -1.04
-5.2 -1.38 -10.55 -1.36 -12.26 -1.76 -12.13 -2.85 .08 -.64 .09 -1.72 .02
-2.41 -.08 -.79 -1.68 -1.24 -4.37 -1.21 -2.34 .02 -5.38 .68 -6.75 1.46z
M726.17 946.33 l-8.34 8.38 3.16 2.4 c1.74 1.32 4.02 3.3 5.07 4.4 1.05 1.1
4.71 5.05 8.12 8.78 l6.2 6.78 2.01 -2.01 c1.97 -1.97 1.98 -2.07 .31 -5.57
-.93 -1.96 -1.7 -5.41 -1.7 -7.66 0 -2.7 .6 -4.59 1.75 -5.53 1.27 -1.04 1.29
-1.66 .38 -2.03 -.7 -.29 -1.13 -2.17 -1.13 -4.41 0 -3.02 -.87 -4.98 -3.34
-7.95 -1.79 -2.15 -3.4 -3.87 -3.69 -3.88 -.29 -.01 -4.24 3.72 -8.81 8.31z
M925.5 1934.14 c-5.5 .46 -11.8 1 -14 1.2 -2.2 .2 -4.9 .63 -6 .97 -1.1 .33
-4.92 .85 -8.5 1.14 -3.71 .31 -6.93 1.11 -7.5 1.88 -.55 .74 -2.07 1.92
-3.39 2.62 -1.31 .7 -7.76 3.02 -14.32 5.16 -6.56 2.14 -12.51 3.89 -13.2
3.89 -.7 0 -3.93 1.32 -7.18 2.94 -3.25 1.62 -9.87 4.53 -14.72 6.47 -4.84
1.94 -10.09 4.45 -11.65 5.56 -1.57 1.12 -3.08 2.03 -3.37 2.03 -.29 0 -13.42
8.7 -20.67 13.69 -1.38 .95 -5.42 3.98 -9 6.74 -3.58 2.76 -10.28 8.4 -14.9
12.54 -4.62 4.14 -14.52 14.31 -22 22.61 -7.48 8.29 -15.55 17.93 -17.94
21.41 -2.39 3.48 -5.12 7.5 -6.08 8.92 -.96 1.43 -3.11 4.62 -4.79 7.09 -1.68
2.47 -4.51 7.2 -6.28 10.5 -1.77 3.3 -4.7 7.81 -6.49 10.01 -1.8 2.21 -5.3
8.73 -7.79 14.5 -2.49 5.77 -6.41 15.54 -8.72 21.72 -2.3 6.18 -4.79 13.38
-5.52 16 -.73 2.62 -2.38 9.04 -3.81 14.26 -1.43 5.22 -3.16 10.28 -3.7 11.24
-.54 .96 -.98 1.97 -.98 2.25 0 .28 .67 .51 1.5 .51 .83 0 1.5 -.87 1.5 -1.94
0 -1.07 .43 -2.21 .96 -2.53 .53 -.33 .7 -1.25 .39 -2.06 -.31 -.81 -.07
-1.47 .52 -1.47 .6 0 1.29 1.01 1.54 2.25 .25 1.24 .42 3.15 .38 4.25 -.04
1.1 -.53 2.58 -1.09 3.29 -.74 .94 -.7 1.61 .14 2.45 .9 .9 1.16 .89 1.16
-.04 0 -.66 .88 -1.2 1.95 -1.2 1.41 0 2.12 -.9 2.56 -3.25 .33 -1.79 .62
-4.82 .65 -6.75 .02 -1.93 -.29 -5.64 -.69 -8.25 -.5 -3.23 -.41 -4.75 .29
-4.75 .56 0 2.01 -2.14 3.23 -4.75 1.21 -2.61 3.23 -5.88 4.49 -7.25 1.26
-1.38 2.75 -4.07 3.32 -6 .57 -1.93 1.34 -5.3 1.71 -7.49 .37 -2.2 1.74 -6.6
3.03 -9.79 1.3 -3.19 3.51 -7.16 4.91 -8.83 1.4 -1.67 2.55 -3.67 2.55 -4.44
0 -.77 1.29 -4.08 2.88 -7.35 1.79 -3.69 2.52 -6.29 1.94 -6.88 -.58 -.58 .31
-3.74 2.34 -8.33 1.8 -4.07 5.58 -10.99 8.4 -15.39 2.82 -4.4 5.88 -8.62 6.79
-9.38 .91 -.76 4.22 -5.03 7.35 -9.5 3.13 -4.47 13.13 -15.58 22.24 -24.72
15.6 -15.64 21.29 -20.26 41.05 -33.3 4.12 -2.72 12.9 -7.64 19.5 -10.92 6.6
-3.29 16.73 -7.74 22.5 -9.91 5.77 -2.16 13.2 -4.82 16.5 -5.91 3.3 -1.09
10.27 -3.15 15.5 -4.57 5.23 -1.42 10.79 -2.54 12.37 -2.47 1.58 .07 3.41 .87
4.08 1.78 .88 1.21 2.15 1.51 4.63 1.12 1.88 -.3 6.57 -.99 10.42 -1.55 3.85
-.55 14.42 -1.53 23.5 -2.17 9.08 -.64 17.93 -1.6 19.68 -2.14 1.75 -.54 5.92
-1.01 9.27 -1.06 5.52 -.08 6.03 -.27 5.48 -1.99 -.33 -1.05 -.06 -2.56 .6
-3.36 1.05 -1.26 -1.3 -1.45 -17.84 -1.45 -10.47 0 -19.64 -.16 -20.37 -.35
-.73 -.19 -5.83 .03 -11.33 .49z M991.89 1936.65 c-.88 .24 -2.12 2.16 -2.75
4.26 -.63 2.1 -1.14 4.32 -1.14 4.92 0 .6 1.41 2.71 3.13 4.67 3.08 3.51 3.23
3.56 8.84 2.92 4.4 -.5 6.47 -.25 9.04 1.08 1.84 .95 6.97 2.59 11.41 3.65
4.44 1.06 11.56 3.11 15.83 4.55 4.49 1.52 7.75 3.18 7.75 3.96 0 .73 -.65
1.33 -1.43 1.33 -.79 0 -2.7 -.51 -4.25 -1.13 -1.55 -.62 -3.93 -1.28 -5.3
-1.46 -1.36 -.18 -2.99 -1.02 -3.61 -1.87 -.62 -.85 -2.29 -1.54 -3.71 -1.54
-1.42 0 -2.82 .39 -3.12 .87 -.3 .48 2.83 2 6.81 3.45 3.98 1.45 7.74 2.69
8.51 2.69 .77 -0 4.11 .99 7.43 2.2 4.43 1.61 6.14 1.88 6.44 .98 .22 -.67
.98 -1.8 1.69 -2.5 .7 -.7 2.01 -2.7 2.91 -4.43 1.02 -1.97 1.25 -3.38 .63
-3.76 -.55 -.34 -1 -1.04 -1 -1.56 0 -.52 .91 -.94 2.03 -.94 1.12 0 2.32
-.75 2.67 -1.66 .4 -1.05 .05 -2.18 -1.31 -3.29 -1.19 -.96 -9.23 -4.12
-17.63 -6.87 -8.39 -2.76 -20.66 -6.13 -27.26 -7.49 -6.6 -1.37 -14.02 -2.71
-16.5 -2.98 -2.48 -.27 -5.22 -.3 -6.11 -.06z M1096 1973.14 c0 .64 4.84 6.08
10.75 12.08 5.91 6 12.25 11.85 14.09 12.99 2.76 1.71 3.27 2.56 2.93 4.89
-.36 2.46 -.02 2.91 2.66 3.54 1.69 .4 3.99 .62 5.1 .5 1.25 -.14 4.11 1.69
7.43 4.74 2.97 2.73 6.55 5.18 7.96 5.45 1.41 .27 2.9 -.03 3.31 -.67 .41
-.64 .74 -1.6 .75 -2.15 .01 -.54 -3.02 -3.86 -6.73 -7.36 -3.71 -3.5 -11.47
-10.17 -17.25 -14.82 -5.78 -4.65 -13.49 -10.46 -17.15 -12.9 -3.66 -2.44
-8.27 -5.12 -10.25 -5.95 -2.74 -1.14 -3.6 -1.23 -3.6 -.34z M875.5 2059
c-12.32 .47 -12.98 .61 -12.65 2.5 .19 1.1 .87 2.33 1.5 2.73 .63 .4 4.08 .81
7.65 .91 3.58 .1 12.27 .22 19.33 .27 11.64 .08 12.96 -.09 14.26 -1.86 1.19
-1.62 1.22 -2.16 .17 -3.18 -.71 -.69 -4.74 -1.36 -9.26 -1.55 -4.4 -.18
-13.85 -.1 -21 .18z M1216.41 2215.97 c-1.95 .79 -2.14 1.9 -2.8 16.19 -.39
8.44 -1.14 17.59 -1.66 20.34 -.52 2.75 -1.82 10.4 -2.88 17 -1.06 6.6 -3.15
15.82 -4.66 20.5 -1.5 4.68 -4.51 13.68 -6.69 20 -2.18 6.32 -4.36 13.5 -4.85
15.94 -.49 2.44 -1.26 4.69 -1.71 5 -.45 .31 -1.88 2.46 -3.17 4.79 -1.29
2.33 -2.05 4.54 -1.69 4.91 .37 .37 1.8 -.55 3.17 -2.04 1.38 -1.49 3.45
-4.77 4.6 -7.3 1.15 -2.52 3.18 -5.76 4.5 -7.19 1.33 -1.43 2.41 -3.13 2.41
-3.77 0 -.64 2.44 -8.75 5.42 -18.01 2.98 -9.26 6.1 -19.32 6.94 -22.34 .84
-3.03 2.68 -11.12 4.09 -18 1.73 -8.43 2.75 -17.22 3.11 -27 .3 -7.97 .74
-15.74 .97 -17.25 .33 -2.12 .03 -2.74 -1.3 -2.69 -.95 .03 -2.67 .44 -3.81
.91z"/>
</svg>
